<svg width="45" height="45" viewBox="0 0 45 45" fill="none" xmlns="http://www.w3.org/2000/svg">
<g clip-path="url(#clip0_212_70)">
<path d="M33.5315 17.4888V3.95395C33.5315 1.77967 31.8956 0 29.895 0H3.63654C1.63594 0 0 1.77976 0 3.95395V32.5195C0 34.6938 1.63594 36.4735 3.63654 36.4735H19.5031C21.4281 41.4817 25.9695 45 31.2703 45C38.3129 45 44.0217 38.7895 44.0217 31.1282C44.0217 24.3074 39.4936 18.6498 33.5315 17.4888ZM18.6605 33.0847H2.75245V8.19982H30.7792V17.2833C23.9671 17.5669 18.5208 23.6458 18.5208 31.1283C18.5188 31.7942 18.5774 32.4456 18.6605 33.0847ZM38.3129 33.8349H33.5939V38.9685H28.9485V33.8349H24.2295V28.7814H28.9485V23.6478H33.5939V28.7814H38.3129V33.8349Z" fill="#525252"/>
</g>
<defs>
<clipPath id="clip0_212_70">
<rect width="44.0217" height="45" fill="white"/>
</clipPath>
</defs>
</svg>
