<svg width="50" height="45" viewBox="0 0 190 171" fill="none" xmlns="http://www.w3.org/2000/svg">
<g clip-path="url(#clip0_210_4)">
<path d="M67.1743 33.7207V26.4076C67.1743 25.0862 68.3746 24.0117 69.8488 24.0117H120.15C121.625 24.0117 122.825 25.087 122.825 26.4076V33.7207C122.825 35.0421 121.624 36.1166 120.15 36.1166H69.8497C68.3746 36.1173 67.1743 35.0421 67.1743 33.7207ZM110.432 12.7562C109.789 5.62774 103.121 0 95 0C86.8793 0 80.211 5.62774 79.5677 12.7562H110.432ZM161.081 41.5207V155.076C161.081 163.42 153.503 170.208 144.189 170.208H45.8109C36.4966 170.208 28.9187 163.42 28.9187 155.076V41.5207C28.9187 33.1766 36.4966 26.3881 45.8109 26.3881H54.6109C54.6109 26.3948 54.6101 26.4016 54.6101 26.4076V33.7207C54.6101 41.2483 61.4467 47.3721 69.8488 47.3721H120.15C128.553 47.3721 135.389 41.2483 135.389 33.7207V26.4076C135.389 26.4008 135.388 26.3941 135.388 26.3881H144.188C153.503 26.3881 161.081 33.1766 161.081 41.5207ZM73.8635 107.639C70.9101 106.009 67.0395 106.831 65.2193 109.477L59.279 118.109L56.2124 115.945C53.4885 114.022 49.5366 114.443 47.3907 116.884C45.2439 119.327 45.7138 122.865 48.4394 124.788L57.0425 130.858C58.1582 131.645 59.5294 132.064 60.9291 132.064C61.2943 132.064 61.662 132.035 62.0272 131.977C63.7904 131.697 65.3374 130.755 66.2772 129.389L75.9149 115.383C77.7359 112.737 76.817 109.27 73.8635 107.639ZM73.8635 67.1194C70.9101 65.4881 67.0395 66.312 65.2193 68.9571L59.279 77.5893L56.2124 75.4252C53.4885 73.5028 49.5366 73.923 47.3907 76.3647C45.2439 78.8071 45.7138 82.3451 48.4394 84.2683L57.0425 90.338C58.1582 91.1251 59.5294 91.5438 60.9291 91.5438C61.2943 91.5438 61.662 91.5153 62.0272 91.4575C63.7904 91.1769 65.3374 90.2352 66.2772 88.8695L75.9149 74.8639C77.7359 72.2174 76.817 68.7507 73.8635 67.1194ZM138.925 126.437C138.925 123.328 136.114 120.809 132.643 120.809H91.6001C88.1307 120.809 85.318 123.328 85.318 126.437C85.318 129.545 88.1307 132.064 91.6001 132.064H132.643C136.114 132.064 138.925 129.545 138.925 126.437ZM138.925 85.9168C138.925 82.808 136.114 80.2891 132.643 80.2891H91.6001C88.1307 80.2891 85.318 82.808 85.318 85.9168C85.318 89.0256 88.1307 91.5445 91.6001 91.5445H132.643C136.114 91.5445 138.925 89.0256 138.925 85.9168Z" fill="#525252"/>
</g>
<defs>
<clipPath id="clip0_210_4">
<rect width="190" height="170.208" fill="white"/>
</clipPath>
</defs>
</svg>
