<svg width="50" height="46" viewBox="0 0 50 46" fill="none" xmlns="http://www.w3.org/2000/svg">
<g clip-path="url(#clip0_212_48)">
<path d="M45.3579 35.5338H34.2504V45.84L45.3579 35.5338Z" fill="#525252"/>
<path d="M45.3579 2.86496C45.3579 1.28136 43.9603 0 42.233 0H7.76692C6.04125 0 4.64197 1.28136 4.64197 2.86496V42.975C4.64197 44.5586 6.04117 45.84 7.76692 45.84H31.0717V33.7359C31.0717 32.9441 31.7705 32.3034 32.6342 32.3034H45.3579V2.86496ZM9.33996 7.17853H24.9999V10.4089H9.33996V7.17853V7.17853ZM9.33996 16.1517H24.9999V19.382H9.33996V16.1517V16.1517ZM24.9999 37.3284H9.33996V34.0981H24.9999V37.3284ZM39.877 28.3552H9.33996V25.1249H39.877V28.3552ZM39.877 19.3821H30.0895V7.17853H39.877V19.3821Z" fill="#525252"/>
</g>
<defs>
<clipPath id="clip0_212_48">
<rect width="50" height="45.84" fill="white"/>
</clipPath>
</defs>
</svg>
