<svg width="50" height="46" viewBox="0 0 50 46" fill="none" xmlns="http://www.w3.org/2000/svg">
<g clip-path="url(#clip0_212_21)">
<path d="M42.604 0.867981H35.8943C31.807 0.867981 28.4983 5.05455 28.4983 10.2262C28.4983 14.3609 30.6188 17.8605 33.5587 19.1048V23.5636C33.5587 23.9784 33.9582 24.1858 34.1836 23.8877L37.5845 19.5844H42.604C46.6913 19.5844 50 15.3979 50 10.2262C50 5.06752 46.6913 0.867981 42.604 0.867981ZM42.2967 11.315H40.0943V14.1017H38.3938V11.315H36.1914V9.16336H38.3938V6.37663H40.0943V9.16336H42.2967V11.315Z" fill="#525252"/>
<path d="M33.7124 36.4085C29.2563 31.7682 24.4417 28.6834 23.4583 28.0872C23.3456 28.0224 23.2842 27.8798 23.2842 27.7242V23.421C23.8066 22.2804 24.1446 21.075 24.2778 19.9733C24.6568 19.9344 25.1588 19.2604 25.7017 16.8495C26.3983 13.7517 25.7427 13.1296 25.1178 13.1296C25.1793 12.8703 25.2305 12.5981 25.2612 12.3389C26.388 3.79727 23.0588 3.49916 23.0588 3.49916C23.0588 3.49916 22.5056 2.16412 21.0613 1.14016C20.0881 0.414314 18.7359 -0.155993 16.9535 0.0384295C16.3798 0.0773141 15.8267 0.219891 15.3145 0.427275C14.6589 0.712429 14.0545 1.11424 13.5116 1.59381C12.8457 2.12524 12.2106 2.78627 11.6574 3.53804C10.7765 4.67866 9.99795 6.14331 9.64966 7.98384C9.36283 9.35777 9.4243 10.7835 9.67015 12.326C9.71112 12.5852 9.76234 12.8574 9.81356 13.1166C9.18869 13.1296 8.57406 13.7776 9.2604 16.8236C9.80332 19.2344 10.3053 19.9084 10.6843 19.9473C10.8175 21.0361 11.1555 22.2415 11.6779 23.3951V27.6854C11.6779 27.8409 11.6062 27.9835 11.5038 28.0483C10.5306 28.6575 5.71604 31.7294 1.24974 36.3696C0.450727 37.1991 0 38.4564 0 39.7655V46H15.1916L16.6872 37.3287C13.655 31.9756 16.9125 31.7164 17.4862 31.7164C18.0496 31.7164 21.3071 31.9756 18.2852 37.3287L19.7808 46H34.9723V39.7655C34.9621 38.4953 34.5114 37.238 33.7124 36.4085Z" fill="#525252"/>
</g>
<defs>
<clipPath id="clip0_212_21">
<rect width="50" height="46" fill="white"/>
</clipPath>
</defs>
</svg>
