<svg width="50" height="45" viewBox="0 0 50 45" fill="none" xmlns="http://www.w3.org/2000/svg">
<g clip-path="url(#clip0_210_4)">
<path d="M17.6774 8.87386V6.94937C17.6774 6.60163 17.9933 6.31886 18.3813 6.31886H31.6185C32.0066 6.31886 32.3223 6.60183 32.3223 6.94937V8.87386C32.3223 9.22159 32.0064 9.50436 31.6185 9.50436H18.3815C17.9933 9.50456 17.6774 9.22159 17.6774 8.87386ZM29.0611 3.3569C28.8918 1.48098 27.137 0 25 0C22.863 0 21.1081 1.48098 20.9389 3.3569H29.0611ZM42.3898 10.9265V40.8094C42.3898 43.0052 40.3956 44.7917 37.9445 44.7917H12.0555C9.60436 44.7917 7.61017 43.0052 7.61017 40.8094V10.9265C7.61017 8.7307 9.60436 6.94423 12.0555 6.94423H14.3713C14.3713 6.94601 14.3711 6.94779 14.3711 6.94937V8.87386C14.3711 10.8548 16.1702 12.4663 18.3813 12.4663H31.6185C33.8298 12.4663 35.6287 10.8548 35.6287 8.87386V6.94937C35.6287 6.94759 35.6285 6.94581 35.6285 6.94423H37.9442C40.3956 6.94423 42.3898 8.7307 42.3898 10.9265ZM19.4378 28.3261C18.6605 27.897 17.642 28.1134 17.163 28.8097L15.5997 31.0813L14.7927 30.5118C14.0759 30.0057 13.0359 30.1165 12.4712 30.759C11.9063 31.4018 12.0299 32.3328 12.7472 32.8389L15.0112 34.4362C15.3048 34.6434 15.6656 34.7536 16.0339 34.7536C16.1301 34.7536 16.2268 34.7461 16.3229 34.7308C16.7869 34.657 17.194 34.4092 17.4414 34.0498L19.9776 30.3639C20.4568 29.6677 20.215 28.7554 19.4378 28.3261ZM19.4378 17.663C18.6605 17.2337 17.642 17.4505 17.163 18.1466L15.5997 20.4182L14.7927 19.8487C14.0759 19.3428 13.0359 19.4534 12.4712 20.096C11.9063 20.7387 12.0299 21.6698 12.7472 22.1759L15.0112 23.7731C15.3048 23.9803 15.6656 24.0905 16.0339 24.0905C16.1301 24.0905 16.2268 24.083 16.3229 24.0678C16.7869 23.9939 17.194 23.7461 17.4414 23.3867L19.9776 19.701C20.4568 19.0046 20.215 18.0923 19.4378 17.663ZM36.5593 33.2728C36.5593 32.4547 35.8193 31.7918 34.9061 31.7918H24.1053C23.1923 31.7918 22.4521 32.4547 22.4521 33.2728C22.4521 34.0909 23.1923 34.7538 24.1053 34.7538H34.9061C35.8193 34.7538 36.5593 34.0909 36.5593 33.2728ZM36.5593 22.6097C36.5593 21.7916 35.8193 21.1287 34.9061 21.1287H24.1053C23.1923 21.1287 22.4521 21.7916 22.4521 22.6097C22.4521 23.4278 23.1923 24.0907 24.1053 24.0907H34.9061C35.8193 24.0907 36.5593 23.4278 36.5593 22.6097Z" fill="#F1DBDA"/>
</g>
<defs>
<clipPath id="clip0_210_4">
<rect width="50" height="44.7917" fill="white"/>
</clipPath>
</defs>
</svg>
