<svg width="44" height="45" viewBox="0 0 44 45" fill="none" xmlns="http://www.w3.org/2000/svg">
<path d="M12.4428 13.125H31.5571C31.3591 12.8288 31.1886 12.5044 30.9741 12.2231L36.1313 6.95063L33.539 4.29938L28.3213 9.63563C27.898 9.32281 27.4552 9.03846 26.9958 8.78438C25.4589 7.9437 23.7429 7.50387 22 7.50387C20.257 7.50387 18.541 7.9437 17.0041 8.78438C16.5458 9.03188 16.1095 9.3225 15.6805 9.63375L10.4628 4.29938L7.87046 6.95063L13.0276 12.2231C12.8113 12.5063 12.6426 12.8288 12.4428 13.125ZM10.5526 16.875H3.66663V20.625H7.89613C7.77696 21.5531 7.69996 22.4944 7.69996 23.4375C7.69996 24.3881 7.77696 25.3369 7.89613 26.2706H3.66663V30.0206H8.71379C8.73763 30.0938 8.75229 30.1706 8.77613 30.2419C9.12079 31.2825 9.54796 32.2913 10.0503 33.2419C10.131 33.3938 10.2245 33.5325 10.3088 33.6806L6.03713 38.0494L8.62946 40.7006L12.4978 36.7425C13.5765 37.9752 14.8601 39.003 16.2891 39.7781C17.1673 40.2525 18.0895 40.62 19.0318 40.8656C19.4058 40.9631 19.7853 41.025 20.1648 41.0869V30H23.8315V41.0888C24.2125 41.0346 24.5907 40.9607 24.9645 40.8675C25.9174 40.6168 26.838 40.2517 27.7071 39.78C28.5596 39.3188 29.3828 38.7488 30.151 38.085C30.624 37.6763 31.0676 37.2188 31.4966 36.7425L35.3668 40.7006L37.9591 38.0494L33.6875 33.6806C33.7736 33.5306 33.8671 33.39 33.9478 33.2381C34.4483 32.2913 34.8773 31.2825 35.2201 30.24C35.244 30.1669 35.2586 30.0919 35.2825 30.0188H40.3333V26.2688H36.102C36.2211 25.3331 36.2981 24.3863 36.2981 23.4356C36.2981 22.4925 36.2211 21.5513 36.1038 20.6231H40.3333V16.875H10.5526Z" fill="#F1DBDA"/>
</svg>
