<svg width="50" height="47" viewBox="0 0 50 47" fill="none" xmlns="http://www.w3.org/2000/svg">
<path d="M25 1.44299C12.0605 1.44299 1.5625 11.1382 1.5625 23.0882C1.5625 35.0472 12.0605 44.7334 25 44.7334C37.9492 44.7334 48.4375 35.0472 48.4375 23.0882C48.4375 11.1292 37.9492 1.44299 25 1.44299ZM25 6.8543C34.707 6.8543 42.5781 14.1235 42.5781 23.0882C42.5781 32.0529 34.707 39.3221 25 39.3221C15.293 39.3221 7.42188 32.0529 7.42188 23.0882C7.42188 14.1235 15.293 6.8543 25 6.8543ZM33.916 12.6444C33.2812 12.6444 32.6953 12.8608 32.2754 13.3839C27.1973 19.7061 25.5371 22.0871 21.9238 28.6979C21.1035 27.6968 15.5176 22.1683 12.7539 20.2112C11.3672 19.2282 8.7207 22.6643 9.66797 23.5572C13.9258 27.6067 21.4941 36.6165 22.7246 36.5263C24.8145 36.373 30.0586 24.1885 37.2559 15.4493C38.0371 14.5113 35.791 12.6264 33.916 12.6444V12.6444Z" fill="#525252"/>
</svg>
