<svg width="43" height="42" viewBox="0 0 43 42" fill="none" xmlns="http://www.w3.org/2000/svg">
<path d="M21.7653 28.8148C21.7653 24.2401 25.5755 20.5185 30.2592 20.5185C31.2042 20.5185 32.1124 20.6722 32.9621 20.9517L33.6689 12.6666H6.82825L8.93018 37.3024C9.15488 39.9365 11.4508 42 14.1572 42H26.3401C29.0464 42 31.3424 39.9365 31.5671 37.3024L31.5922 37.0081C31.1577 37.0753 30.7126 37.1112 30.2592 37.1112C25.5757 37.1112 21.7653 33.3896 21.7653 28.8148Z" fill="#525252"/>
<path d="M30.2593 22.4445C26.6631 22.4445 23.7372 25.3023 23.7372 28.8149C23.7372 32.3275 26.6631 35.1853 30.2593 35.1853C33.8555 35.1853 36.7814 32.3275 36.7814 28.8149C36.7814 25.3023 33.8555 22.4445 30.2593 22.4445ZM33.4591 30.5783C33.8441 30.9545 33.8441 31.5641 33.4591 31.9403C33.2665 32.1282 33.0142 32.2223 32.7618 32.2223C32.5096 32.2223 32.2571 32.1282 32.0646 31.9403L30.2593 30.1768L28.4539 31.9403C28.2613 32.1282 28.009 32.2223 27.7566 32.2223C27.5044 32.2223 27.2519 32.1282 27.0593 31.9403C26.6744 31.5641 26.6744 30.9545 27.0593 30.5783L28.8648 28.8149L27.0593 27.0514C26.6744 26.6753 26.6744 26.0656 27.0593 25.6895C27.4444 25.3136 28.0686 25.3136 28.4537 25.6895L30.2591 27.4529L32.0646 25.6895C32.4498 25.3136 33.074 25.3136 33.4591 25.6895C33.8441 26.0656 33.8441 26.6753 33.4591 27.0514L31.6537 28.8149L33.4591 30.5783Z" fill="#525252"/>
<path d="M16.2292 3.69119C16.2292 2.71784 17.04 1.92592 18.0365 1.92592H22.4604C23.4571 1.92592 24.2679 2.71784 24.2679 3.69119V4.8942H26.2397V3.69119C26.2398 1.65596 24.5444 0 22.4606 0H18.0366C15.953 0 14.2576 1.65596 14.2576 3.69119V4.8942H16.2292V3.69119V3.69119Z" fill="#525252"/>
<path d="M34.2787 8.99997C34.2787 7.79795 33.2775 6.82007 32.0469 6.82007H8.45043C7.21979 6.82007 6.21863 7.79795 6.21863 8.99997V10.7408H34.2787V8.99997Z" fill="#525252"/>
</svg>
