<svg width="50" height="50" viewBox="0 0 50 50" fill="none" xmlns="http://www.w3.org/2000/svg">
<path d="M38.0852 19.7679V5.63663C38.0852 3.36652 36.2271 1.50842 33.9548 1.50842H4.13039C1.8581 1.50842 0 3.36662 0 5.63663V35.4611C0 37.7312 1.8581 39.5893 4.13039 39.5893H22.1517C24.3381 44.8183 29.4962 48.4916 35.5169 48.4916C43.5158 48.4916 50 42.0074 50 34.0085C50 26.8871 44.8569 20.9802 38.0852 19.7679ZM21.1947 36.0512H3.12624V10.0696H34.959V19.5534C27.2219 19.8495 21.0359 26.1963 21.0359 34.0086C21.0337 34.7038 21.1003 35.3839 21.1947 36.0512ZM43.5158 36.8344H38.156V42.1943H32.8798V36.8344H27.52V31.5582H32.8798V26.1984H38.156V31.5582H43.5158V36.8344Z" fill="#525252"/>
</svg>
